<svg xmlns="http://www.w3.org/2000/svg" viewBox="0 0 500 500"><g id="freepik--background-complete--inject-1"><rect y="382.4" width="500" height="0.25" style="fill:#ebebeb"></rect><rect x="416.78" y="398.49" width="33.12" height="0.25" style="fill:#ebebeb"></rect><rect x="322.53" y="401.21" width="8.69" height="0.25" style="fill:#ebebeb"></rect><rect x="396.59" y="389.21" width="19.19" height="0.25" style="fill:#ebebeb"></rect><rect x="52.46" y="390.89" width="43.19" height="0.25" style="fill:#ebebeb"></rect><rect x="104.56" y="390.89" width="6.33" height="0.25" style="fill:#ebebeb"></rect><rect x="131.47" y="395.11" width="93.68" height="0.25" style="fill:#ebebeb"></rect><path d="M237,337.8H43.91a5.71,5.71,0,0,1-5.7-5.71V60.66A5.71,5.71,0,0,1,43.91,55H237a5.71,5.71,0,0,1,5.71,5.71V332.09A5.71,5.71,0,0,1,237,337.8ZM43.91,55.2a5.46,5.46,0,0,0-5.45,5.46V332.09a5.46,5.46,0,0,0,5.45,5.46H237a5.47,5.47,0,0,0,5.46-5.46V60.66A5.47,5.47,0,0,0,237,55.2Z" style="fill:#ebebeb"></path><path d="M453.31,337.8H260.21a5.72,5.72,0,0,1-5.71-5.71V60.66A5.72,5.72,0,0,1,260.21,55h193.1A5.71,5.71,0,0,1,459,60.66V332.09A5.71,5.71,0,0,1,453.31,337.8ZM260.21,55.2a5.47,5.47,0,0,0-5.46,5.46V332.09a5.47,5.47,0,0,0,5.46,5.46h193.1a5.47,5.47,0,0,0,5.46-5.46V60.66a5.47,5.47,0,0,0-5.46-5.46Z" style="fill:#ebebeb"></path><rect x="224.04" y="71.97" width="207.16" height="151.32" style="fill:#e6e6e6"></rect><rect x="226.17" y="71.97" width="214.19" height="151.32" style="fill:#f0f0f0"></rect><polygon points="431.2 223.3 224.04 223.3 224.04 230.56 435.48 230.56 431.2 223.3" style="fill:#e6e6e6"></polygon><polygon points="447.93 223.3 233.74 223.3 235.71 230.56 449.9 230.56 447.93 223.3" style="fill:#f0f0f0"></polygon><rect x="270.43" y="53.36" width="125.68" height="188.55" transform="translate(480.9 -185.63) rotate(90)" style="fill:#fafafa"></rect><polygon points="284.82 210.47 327.75 84.79 368.74 84.79 325.81 210.47 284.82 210.47" style="fill:#fff"></polygon><polygon points="334.62 210.47 377.54 84.79 393.52 84.79 350.6 210.47 334.62 210.47" style="fill:#fff"></polygon><rect x="363.89" y="146.82" width="125.68" height="1.63" transform="translate(574.36 -279.09) rotate(90)" style="fill:#e6e6e6"></rect><path d="M262.34,281.8h0c-.49,0-1,0-1.46.05-10.29.82-18.62,10.63-19.27,22.7a28.34,28.34,0,0,0,.67,7.93,141.84,141.84,0,0,1,3.25,31.71v31.15a3.82,3.82,0,0,0,3.49,4.08H422.58V281.8Z" style="fill:#f0f0f0"></path><path d="M443.35,306.15c0-14-10.1-25.26-22.23-24.29-10.29.82-18.62,10.63-19.27,22.7a28.34,28.34,0,0,0,.67,7.93,141.84,141.84,0,0,1,3.25,31.71v31.15a3.82,3.82,0,0,0,3.49,4.08h26.63a3.82,3.82,0,0,0,3.49-4.08v-33a129,129,0,0,1,3.22-29.71A28.24,28.24,0,0,0,443.35,306.15Z" style="fill:#fafafa"></path><rect x="216.59" y="324.23" width="177.36" height="55.21" style="fill:#f5f5f5"></rect><path d="M171,258.07H355.59a17,17,0,0,1,17,17v58.47a0,0,0,0,1,0,0H154a0,0,0,0,1,0,0V275.09A17,17,0,0,1,171,258.07Z" style="fill:#e6e6e6"></path><path d="M183.43,258.07H360a16.78,16.78,0,0,1,16.78,16.78v58.7a0,0,0,0,1,0,0H166.65a0,0,0,0,1,0,0v-58.7A16.78,16.78,0,0,1,183.43,258.07Z" style="fill:#f5f5f5"></path><path d="M221.28,322.24H393.9a3.65,3.65,0,0,1,3.65,3.65v5.87a3.65,3.65,0,0,1-3.65,3.65H221.28a1.09,1.09,0,0,1-1.09-1.09v-11A1.09,1.09,0,0,1,221.28,322.24Z" style="fill:#ebebeb"></path><path d="M145.52,379.43h278.1a0,0,0,0,1,0,0v.23a2.74,2.74,0,0,1-2.74,2.74H148.26a2.74,2.74,0,0,1-2.74-2.74v-.23A0,0,0,0,1,145.52,379.43Z" style="fill:#e6e6e6"></path><path d="M146.56,281.8h0c-.48,0-1,0-1.45.05-10.3.82-18.62,10.63-19.27,22.7a28.72,28.72,0,0,0,.66,7.93,141.85,141.85,0,0,1,3.26,31.71v31.15a3.82,3.82,0,0,0,3.49,4.08h84.33V281.8Z" style="fill:#f0f0f0"></path><path d="M238.36,306.15c0-14-10.1-25.26-22.23-24.29-10.3.82-18.62,10.63-19.27,22.7a28.72,28.72,0,0,0,.66,7.93,141.85,141.85,0,0,1,3.26,31.71v31.15a3.82,3.82,0,0,0,3.49,4.08H230.9a3.82,3.82,0,0,0,3.49-4.08v-33a129.54,129.54,0,0,1,3.21-29.71A28.24,28.24,0,0,0,238.36,306.15Z" style="fill:#fafafa"></path><path d="M64.46,228.31c3.64-6.73,27.94,2.44,37.29,13.6a46.18,46.18,0,0,1,11,26c.62-12.15,1.28-25.21,1.88-37.53-1.83-3.08-6-10.17-9-15.78-9.9-18.74-36.1-25.73-44.48-37.56-11-15.5-9.29-38.75,1.58-47.13,9.45-7.28,35.58,42,38.52,47.53,10.14,18.95,12.48,33,13.68,46.62.56-11.57,1.08-22.2,1.46-30.4,1.25-26.74,1.07-35.35.9-38-1.15-1.3-2.5-2.8-3.29-3.61-6.68-6.84-22-15-29.24-24.91-10.58-14.51-7.49-31.86,1.1-38.32,9-6.75,22.89,9.23,29.76,25.05s2.39,31,3.71,44.11c.29,2.58.08,12.37-.42,26,3.45-14.61,9-24.4,18.53-33.51,11.78-11.21,22.23-24.86,31.17-23.09s2.79,19.84-5.27,32.52c-7.18,11.3-39.45,22.55-44.72,31.63-.75,18.41-1.9,41.72-3.08,63.43,3.27-11.21,1.63-12.15,13-29.31,6.76-10.2,32.43-22.77,34.89-15.76s-3,20.26-13,29.54c-8.07,7.48-24.82,7.47-29,12.11-1,1.08-4.26,5.24-6.14,7.62-1.45,26.51-2.92,49.9-3.68,57.88l-1.63.08c.23-2.06,1-15.54,1.91-33.39-3.4-9.49-30.39-15-38.15-24.93C65.61,248.44,60.1,236.38,64.46,228.31Z" style="fill:#e6e6e6"></path><path d="M133.54,382.4H88.45a5.18,5.18,0,0,1-5.08-4.15L80.17,311h61.65l-3.21,67.27A5.18,5.18,0,0,1,133.54,382.4Z" style="fill:#e6e6e6"></path><path d="M143.1,317.1H78.88a3,3,0,0,1-3-2.69l-1.32-11.66a3,3,0,0,1,3-3.37h66.85a3,3,0,0,1,3,3.37l-1.31,11.66A3,3,0,0,1,143.1,317.1Z" style="fill:#fafafa"></path></g><g id="freepik--Shadow--inject-1"><ellipse id="freepik--path--inject-1" cx="250" cy="416.24" rx="193.89" ry="11.32" style="fill:#f5f5f5"></ellipse></g><g id="freepik--Chart--inject-1"><polygon points="171.1 416.24 173.85 416.24 191.61 210.18 188.87 210.18 171.1 416.24" style="fill:#263238"></polygon><polygon points="223.52 416.24 220.78 416.24 203.01 210.18 205.76 210.18 223.52 416.24" style="fill:#263238"></polygon><polygon points="96.45 301.68 334.01 301.68 313.26 118.67 75.7 118.67 96.45 301.68" style="fill:#e0e0e0"></polygon><path d="M334.3,301.94H96.21L75.41,118.41H313.5Zm-237.62-.52h237L313,118.93H76Z" style="fill:#407BFF"></path><rect x="249.77" y="115.27" width="8.56" height="0.52" style="fill:#407BFF"></rect><rect x="267.37" y="115.27" width="23.97" height="0.52" style="fill:#407BFF"></rect><polygon points="98.89 301.68 336.45 301.68 315.71 118.67 78.15 118.67 98.89 301.68" style="fill:#fff"></polygon><path d="M336.75,301.94H98.66L77.86,118.41H315.94Zm-237.62-.52h237L315.48,118.93h-237Z" style="fill:#407BFF"></path><path d="M208.39,204.11l24.84-42.32a56,56,0,0,0-35.17-9.14,45.57,45.57,0,0,0-30.34,14.93Z" style="fill:#407BFF"></path><path d="M208.39,204.11l24.84-42.32a56,56,0,0,0-35.17-9.14,45.57,45.57,0,0,0-30.34,14.93Z" style="fill:#fff;opacity:0.7000000000000001"></path><path d="M208.39,204.11l35.2,60.72a57,57,0,0,0,17.55-13.35c23-26,18.19-68.75-10.74-94.74a79,79,0,0,0-9.8-7.51Z" style="fill:#407BFF"></path><path d="M208.39,204.11l35.2,60.72a57,57,0,0,0,17.55-13.35c23-26,18.19-68.75-10.74-94.74a79,79,0,0,0-9.8-7.51Z" style="opacity:0.2"></path><path d="M208.39,204.11,132.8,184.45c-4,26.18,6.64,54.2,28,73.37C185.85,280.34,221,286.41,248.29,273Z" style="fill:#263238"></path><polygon points="268.18 140.69 303.35 140.69 302.54 133.53 267.37 133.53 268.18 140.69" style="fill:#e0e0e0"></polygon><polygon points="282.09 151.83 304.61 151.83 303.8 144.67 281.28 144.67 282.09 151.83" style="fill:#e0e0e0"></polygon><polygon points="290.99 279.66 319.1 279.66 319.92 286.82 291.8 286.82 290.99 279.66" style="fill:#e0e0e0"></polygon><polygon points="295.31 268.52 317.84 268.52 318.65 275.68 296.13 275.68 295.31 268.52" style="fill:#e0e0e0"></polygon><polygon points="275.28 268.52 291.6 268.52 292.41 275.68 276.1 275.68 275.28 268.52" style="fill:#e0e0e0"></polygon><polygon points="131.12 144.67 95.95 144.67 96.76 151.83 131.93 151.83 131.12 144.67" style="fill:#e0e0e0"></polygon><polygon points="117.21 133.53 94.69 133.53 95.5 140.69 118.03 140.69 117.21 133.53" style="fill:#e0e0e0"></polygon><polygon points="138.92 275.68 110.8 275.68 109.99 268.52 138.1 268.52 138.92 275.68" style="fill:#e0e0e0"></polygon><polygon points="134.59 286.82 112.06 286.82 111.25 279.66 133.78 279.66 134.59 286.82" style="fill:#e0e0e0"></polygon><polygon points="154.62 286.82 138.3 286.82 137.49 279.66 153.81 279.66 154.62 286.82" style="fill:#e0e0e0"></polygon></g><g id="freepik--Character--inject-1"><path d="M410.29,165.25c.35.56.6,1,.88,1.47s.53.93.78,1.4c.5.93,1,1.87,1.43,2.81.93,1.89,1.74,3.81,2.52,5.74a96.4,96.4,0,0,1,3.75,11.89c.26,1,.46,2,.68,3l.16.76c0,.1.06.3.09.49l.08.56a10.05,10.05,0,0,1,0,2.33,10.55,10.55,0,0,1-1.44,4.4,12.56,12.56,0,0,1-2.68,3.13,19.78,19.78,0,0,1-6.15,3.42,26.1,26.1,0,0,1-3.14.93,26.64,26.64,0,0,1-3.24.57l-1-4.33c3.28-1.46,6.77-3.46,8.64-5.68a5.92,5.92,0,0,0,1-1.58,2.8,2.8,0,0,0,.19-1.3,3.33,3.33,0,0,0-.12-.65l-.32-1.1c-.27-.92-.52-1.84-.83-2.75-1.14-3.65-2.47-7.23-4-10.73-.74-1.76-1.54-3.48-2.35-5.19-.42-.85-.84-1.69-1.28-2.51l-.66-1.22-.62-1.12Z" style="fill:#b55b52"></path><path d="M404.72,203.22l-7.14,1.06,3.55,5.85s5.07-.83,6.65-4.13Z" style="fill:#b55b52"></path><polygon points="392.65 206.79 395.01 212.11 401.13 210.13 397.58 204.28 392.65 206.79" style="fill:#b55b52"></polygon><path d="M391,407.83a11.14,11.14,0,0,0,2.32-.31.21.21,0,0,0,.16-.17.2.2,0,0,0-.09-.21c-.29-.2-2.94-1.92-4-1.46a.75.75,0,0,0-.43.59,1.17,1.17,0,0,0,.33,1.1A2.5,2.5,0,0,0,391,407.83Zm1.74-.61c-1.53.3-2.68.25-3.12-.15a.78.78,0,0,1-.2-.74.29.29,0,0,1,.17-.27C390.13,405.81,391.66,406.56,392.74,407.22Z" style="fill:#407BFF"></path><path d="M393.27,407.52a.2.2,0,0,0,.11,0,.23.23,0,0,0,.11-.18c0-.1,0-2.63-.92-3.48a1.06,1.06,0,0,0-.88-.27.74.74,0,0,0-.71.58c-.21,1,1.36,2.88,2.19,3.35A.19.19,0,0,0,393.27,407.52ZM391.83,404a.69.69,0,0,1,.46.18,4.7,4.7,0,0,1,.77,2.77c-.82-.67-1.8-2.09-1.67-2.69,0-.1.08-.22.35-.25Z" style="fill:#407BFF"></path><path d="M383.74,402a.22.22,0,0,0,0-.21.21.21,0,0,0-.22-.1c-.43.07-4.16.75-4.83,1.84a.25.25,0,0,0,0,.07.67.67,0,0,0,0,.66,1.08,1.08,0,0,0,.88.57c1.27.11,3.14-1.71,4.15-2.8C383.73,402.05,383.74,402,383.74,402Zm-4.68,1.73c.38-.6,2.39-1.19,3.92-1.51-1.41,1.44-2.64,2.26-3.35,2.2a.71.71,0,0,1-.58-.39.27.27,0,0,1,0-.26S379.05,403.77,379.06,403.76Z" style="fill:#407BFF"></path><path d="M383.74,402l0,0a.2.2,0,0,0,0-.21c-.06-.07-1.57-1.83-3-1.89a1.52,1.52,0,0,0-1.14.42c-.45.39-.41.73-.31.94.43.89,3.2,1.14,4.33.88A.26.26,0,0,0,383.74,402Zm-4.06-1.23a1.3,1.3,0,0,1,.17-.19,1.1,1.1,0,0,1,.85-.3,4.54,4.54,0,0,1,2.45,1.47c-1.24.14-3.24-.19-3.5-.73A.26.26,0,0,1,379.68,400.8Z" style="fill:#407BFF"></path><path d="M391.31,134.74c-1,5.22-3.23,16.62.44,20,0,0-1.39,5.31-11.08,5.5-10.65.21-5.12-5.18-5.12-5.18,5.8-1.5,5.63-5.81,4.59-9.83Z" style="fill:#b55b52"></path><path d="M372.93,123.19a.45.45,0,0,0,.19,0,.43.43,0,0,0,.18-.56,4.08,4.08,0,0,0-3-2.25.42.42,0,0,0-.46.38.4.4,0,0,0,.36.45h0a3.26,3.26,0,0,1,2.39,1.81A.41.41,0,0,0,372.93,123.19Z" style="fill:#263238"></path><path d="M370.33,127.42a19.06,19.06,0,0,1-3,4.23,3,3,0,0,0,2.46.73Z" style="fill:#a02724"></path><path d="M368.94,131.26c-1.87,0-3.4-3-3.4-6.79s1.53-6.79,3.4-6.79,3.41,3,3.41,6.79S370.82,131.26,368.94,131.26Zm0-13.33c-1.73,0-3.15,2.94-3.15,6.54s1.42,6.54,3.15,6.54,3.16-2.93,3.16-6.54S370.68,117.93,368.94,117.93Z" style="fill:#407BFF"></path><path d="M371.11,126.28c-.09.7-.53,1.23-1,1.18s-.76-.65-.68-1.36.52-1.23,1-1.19S371.19,125.57,371.11,126.28Z" style="fill:#263238"></path><path d="M370.62,125l-1.63-.67S369.7,125.72,370.62,125Z" style="fill:#263238"></path><polygon points="392.02 398.75 383.88 402.57 374.99 384.82 383.13 381 392.02 398.75" style="fill:#b55b52"></polygon><polygon points="403.49 407.31 394.71 407.31 395.68 386.98 404.46 386.98 403.49 407.31" style="fill:#b55b52"></polygon><path d="M394,406.3h9.86a.68.68,0,0,1,.69.6l1,7.8a1.44,1.44,0,0,1-1.43,1.56c-3.44-.06-5.1-.26-9.43-.26-2.67,0-6.57.28-10.26.28s-3.83-3.65-2.29-4c6.9-1.48,8-3.52,10.36-5.46A2.33,2.33,0,0,1,394,406.3Z" style="fill:#263238"></path><path d="M383.46,400.76l8.1-6a.67.67,0,0,1,.91.05l5.35,5.54a1.44,1.44,0,0,1-.27,2.1c-2.86,2.05-4.33,2.9-7.89,5.54-2.19,1.63-6.56,5.22-9.59,7.46s-5.25-.53-4.18-1.73c4.81-5.38,5.88-8.66,6.68-11.62A2.42,2.42,0,0,1,383.46,400.76Z" style="fill:#263238"></path><polygon points="375 384.83 379.75 394.33 387.72 390.15 383.14 381 375 384.83" style="opacity:0.2"></polygon><polygon points="404.46 386.99 395.68 386.99 395.18 397.47 403.96 397.47 404.46 386.99" style="opacity:0.2"></polygon><path d="M406.91,156.46c3.66.72,7.63,13.75,7.63,13.75l-10.25,11.16s-8.64-12.14-6.92-16.7C399.16,159.92,402.6,155.6,406.91,156.46Z" style="fill:#263238"></path><path d="M401.18,164.91c-1.86-1.65-3.1-1.12-3.95.24-.81,3.91,4.21,12,6.23,15C404.36,176.46,405.37,168.66,401.18,164.91Z" style="opacity:0.4"></path><path d="M360,159.48c-.67,3.84-.81,15.53,5.19,51l35.68-.7c-.68-14.49-.75-23.43,6-53.31a104.64,104.64,0,0,0-15.16-1.7,113,113,0,0,0-16.2.32c-5.19.57-10.88,1.7-13.45,2.24A2.64,2.64,0,0,0,360,159.48Z" style="fill:#263238"></path><path d="M395.05,126.32c-1.55,8.59-2,12.25-6.91,16.23-7.35,6-17.55,2.36-18.6-6.48-.94-8,1.76-20.67,10.62-23.23A11.72,11.72,0,0,1,395.05,126.32Z" style="fill:#b55b52"></path><path d="M371,115.58c0-.27-.19-.56-.17-.83s.1-.55.13-.82,0-.56,0-.84.27-.51.33-.78-.13-.6-.05-.87.21-.52.3-.78.34-.46.44-.72.22-.51.34-.76.05-.59.18-.84.53-.33.67-.57,0-.68.12-.91.45-.37.61-.59.27-.51.44-.72.42-.37.61-.58.52-.27.72-.46.18-.61.39-.8.47-.31.68-.49.51-.25.73-.42.32-.5.55-.65.7.06.94-.09.45-.3.69-.44.46-.29.71-.41.33-.58.59-.69.59,0,.85-.13.43-.43.69-.52.65.2.91.12.44-.48.71-.55.54-.16.81-.22.57,0,.85,0,.55,0,.83-.08.54,0,.81-.08.55,0,.82-.08.55,0,.82-.06.54-.08.82-.1.54-.1.82-.11.56.22.83.21.55-.18.82-.18.56-.16.83-.16.54.28.82.29.53.19.8.21.58-.26.85-.23.52.29.79.33.57-.13.84-.09.51.26.78.31.59-.13.85-.07.53.17.79.24.54.12.8.2.51.21.77.3.46.35.71.45.49.24.74.35.61,0,.85.09.52.21.76.34.43.35.67.49.33.5.56.65.53.17.75.33.62.09.83.26.19.64.4.81.58.16.79.35.38.39.58.58.19.57.37.77.43.34.61.55.43.35.6.56.43.36.59.58.05.63.2.85.57.29.71.53.07.58.2.82.28.47.4.71.46.39.57.64.31.47.41.72.07.56.17.82.2.51.28.77.12.54.2.8.11.54.18.8-.09.58,0,.85.57.44.61.71-.35.61-.31.89.18.52.21.79-.06.55,0,.82,0,.54,0,.82.14.54.15.82.38.56.38.84,0,.57-.05.85-.06.56-.09.84-.3.53-.34.8,0,.56-.08.84-.09.55-.14.82,0,.58,0,.85-.25.51-.32.78-.35.48-.43.75,0,.58-.08.85-.29.48-.39.74.08.63,0,.89-.21.52-.33.77-.38.45-.5.7-.1.58-.23.82-.47.38-.61.62-.45.38-.59.62-.16.55-.32.78-.41.39-.57.62-.14.59-.31.81-.18.57-.36.78-.51.31-.69.52-.24.54-.43.75-.5.3-.69.49-.35.45-.55.64-.51.28-.72.46-.5.28-.71.45-.28.55-.5.72-.56.19-.79.35-.56.15-.79.31-.3.57-.54.71-.59.09-.84.22-.45.33-.7.46-.39.46-.65.58-.54.16-.8.27-.6,0-.87.08l-.79.25c-.26.09-.42.52-.69.59s-.66-.3-.93-.24-.49.35-.76.41-.55.1-.82.14-.57-.1-.85-.06-.54.08-.82.1-.53.49-.81.5-.55-.35-.83-.35c0,0,0,.1,0,.1-.36,0-.72-.06-1.09-.06s-.55-.17-.83-.18-.59.42-.87.39-.52-.34-.8-.38-.53-.17-.8-.22-.62.16-.89.09-.53-.18-.8-.26-.47-.36-.73-.46-.57-.09-.82-.2-.59-.07-.84-.2-.38-.48-.63-.62-.59-.09-.83-.24-.25-.63-.48-.79-.57-.16-.78-.34-.33-.47-.54-.66-.38-.38-.58-.58-.74-.07-.93-.28-.07-.67-.25-.89-.59-.25-.76-.48-.35-.44-.51-.68.1-.7,0-.95-.39-.41-.51-.67-.39-.43-.5-.69-.06-.57-.15-.84-.1-.54-.18-.81-.57-.43-.63-.71.11-.6.06-.87-.26-.54-.29-.82.37-.58.35-.87-.05-.54-.05-.82-.38-.52-.4-.76,0-.51-.05-.75.06-.52.06-.77a5,5,0,0,1,0-.77c0-.23.16-.46.24-.73-.22-.19-.51-.3-.71-.49s-.19-.62-.38-.83-.36-.43-.53-.66-.53-.32-.68-.56-.07-.62-.21-.87-.25-.49-.37-.75-.27-.49-.37-.76-.17-.53-.25-.81-.23-.52-.29-.8-.18-.53-.23-.82-.39-.52-.43-.81,0-.58,0-.87.37-.59.36-.88S371,115.87,371,115.58Z" style="fill:#263238"></path><path d="M373.92,127.53c-.9,2,.34,2.39.19,3.82-.33,3.14,1.12,3,2.24,1.43,1-1.43,2-4.26,1.11-5.92S374.72,125.71,373.92,127.53Z" style="fill:#b55b52"></path><path d="M374.63,210.28s5.45,60.1,10.93,93.93c4.43,27.32,8.18,91.23,8.18,91.23h12s3.91-62.38,1.58-89.44c-5.88-68.48,6.33-74.31-6.4-96.23Z" style="fill:#407BFF"></path><path d="M386.81,230.38c-3.12,4.58-7.28,9.86-8.63,15.45,1.08,10.14,2.34,21.35,3.7,32.13C385.17,268.89,390.81,250.77,386.81,230.38Z" style="opacity:0.4"></path><path d="M365.21,210.47s-11.11,69.72-14.44,96.31C347.31,334.45,375,390.83,375,390.83l11.89-6.55s-15.89-58.43-14.8-72.52c3.89-29.61,24.72-101.91,24.72-101.91Z" style="fill:#407BFF"></path><path d="M385.08,234.74h-7.22a.25.25,0,0,1-.16-.06L374.26,232a.28.28,0,0,1-.1-.23l.85-13.22a.26.26,0,0,1,.26-.24H389.7a.28.28,0,0,1,.2.08.37.37,0,0,1,.07.2l-.85,13.22a.31.31,0,0,1-.11.2l-3.78,2.65A.3.3,0,0,1,385.08,234.74Zm-7.13-.53h7l3.61-2.53.82-12.82h-13.9l-.83,12.84Z" style="fill:#fff"></path><polygon points="375.01 393.78 388.94 386.7 387.01 381.25 372.1 388.81 375.01 393.78" style="fill:#263238"></polygon><polygon points="392.1 395.68 407.35 395.68 408.22 390.33 392.1 389.78 392.1 395.68" style="fill:#263238"></polygon><path d="M401.42,207.67l1.62,3.16c.13.24-.16.5-.57.51l-37.43.73c-.32,0-.59-.15-.61-.35l-.34-3.18c0-.22.26-.41.61-.42l36.13-.71A.65.65,0,0,1,401.42,207.67Z" style="fill:#e0e0e0"></path><path d="M396.59,211.8l1,0c.2,0,.34-.11.33-.23l-.48-4.13c0-.12-.18-.22-.37-.22l-1,0c-.19,0-.34.11-.33.23l.48,4.13C396.22,211.71,396.39,211.8,396.59,211.8Z" style="fill:#263238"></path><path d="M373.13,212.26l1,0c.19,0,.34-.11.32-.23l-.48-4.13c0-.12-.18-.22-.37-.22l-1,0c-.19,0-.34.11-.32.23l.47,4.13C372.77,212.17,372.94,212.26,373.13,212.26Z" style="fill:#263238"></path><path d="M360.51,177.39c.17,1.66.37,3.44.6,5.38,4.38-2.57,4.42-9.92,5.47-13.3C364.61,169.77,359.93,170.74,360.51,177.39Z" style="opacity:0.4"></path><path d="M364.45,168a112.32,112.32,0,0,1-5.06,13.29A72.63,72.63,0,0,1,352.24,194a14,14,0,0,1-3.38,3.28,19.67,19.67,0,0,1-3.72,2,32.45,32.45,0,0,1-7.4,2,55.31,55.31,0,0,1-14.42.23l.11-4.44a78.94,78.94,0,0,0,12.88-2.39,29.68,29.68,0,0,0,5.65-2.21,9.12,9.12,0,0,0,3.59-3.07c1.09-1.75,2.07-3.66,3-5.6s1.81-4,2.66-6c1.66-4.07,3.24-8.33,4.64-12.43Z" style="fill:#b55b52"></path><path d="M360.24,158.06c-3.93,2.21-9.13,14.43-9.13,14.43l13,8.38s7.55-11.53,6.62-18.24C370,157.64,364.33,155.75,360.24,158.06Z" style="fill:#263238"></path><path d="M325.06,201.15l-6.1,3.32-1.93-7s5.28-1.8,8.35-.05Z" style="fill:#b55b52"></path><path d="M331.66,232.43,302.41,174a52.41,52.41,0,0,0-12.47,8.84,55.29,55.29,0,0,0-9.62,12.22Z" style="fill:#407BFF"></path><polygon points="314.92 205.78 311.86 200.22 317.03 197.5 318.96 204.47 314.92 205.78" style="fill:#b55b52"></polygon></g></svg>